<svg width="640" height="748" viewBox="0 0 640 748" fill="none"
    xmlns="http://www.w3.org/2000/svg">
    <g id="Marchar" clip-path="url(#clip0_401_3)">
        <g id="beak">
            <path id="Vector" d="M357.65 252.435L324.5 231.721L305.5 264.279C305.5 264.279 335.06 259.118 351.14 264.562L357.65 252.435Z" fill="#725514"/>
            <path id="Vector_2" d="M307.68 264.615C307.68 264.615 326.68 277.194 351.18 264.562C351.18 264.562 323.38 258.764 307.68 264.615Z" fill="#49340E"/>
            <path id="Vector_3" d="M325.08 231.721C325.08 231.721 311.86 252.134 305.4 264.562C305.4 264.562 336.58 259.065 351.18 264.562L357.65 252.904L325.08 231.721Z" stroke="black" stroke-width="3" stroke-linecap="round" stroke-linejoin="round"/>
            <path id="Vector_4" d="M351.18 264.562C325.9 276.468 307.12 264.279 307.12 264.279" stroke="black" stroke-width="3" stroke-linecap="round" stroke-linejoin="round"/>
        </g>
        <g id="Tail">
            <path id="Vector_5" d="M535.618 659.519C544.289 690.147 567 725.059 567 725.059C529.195 757.816 486.914 745.878 486.914 745.878C422.123 678.306 438.973 569.82 438.973 569.82C448.314 571.162 457.799 571.565 467.244 571.022C476.196 570.643 485.1 569.632 493.869 568" fill="#725514"/>
            <path id="Vector_6" d="M522.1 560.495C522.1 560.495 525.37 605.641 556.24 650.893C556.24 650.893 546.12 661.329 508.48 662.312C508.48 662.312 491.64 639.916 489.98 597.63L487.7 568.064C487.7 568.064 505.64 568.073 522.1 560.495Z" fill="#725514"/>
            <path id="Vector_7" d="M490 597.63C490 597.63 477.87 626.231 502.12 674.253C511.304 675.036 520.572 674.438 529.53 672.483C531.993 681.922 535.085 691.224 538.79 700.34C544.68 714.778 556.26 733.04 556.26 733.04L566.87 724.985C566.87 724.985 541.1 683.477 535.6 659.329C535.6 659.329 519.18 663.516 508.48 662.277C508.48 662.312 489.7 630.949 490 597.63Z" fill="#4F3810"/>
            <path id="Vector_8" d="M439.3 569.507C439.3 569.507 422.51 678.184 487.07 745.875C487.07 745.875 529.2 757.835 566.87 725.02C566.87 725.02 544.24 690.045 535.6 659.364" stroke="black" stroke-width="3" stroke-linecap="round" stroke-linejoin="round"/>
            <path id="Vector_9" d="M522.1 560.495C522.1 560.495 525.37 605.641 556.24 650.893C556.24 650.893 546.12 661.329 508.48 662.312C508.48 662.312 491.64 639.916 489.98 597.63" stroke="black" stroke-width="3" stroke-linecap="round" stroke-linejoin="round"/>
        </g>
        <g id="Foot">
            <path id="Vector_10" d="M396.94 559.601L362.89 586.299L438.2 579.704L439.3 569.507C439.3 569.507 414.81 567.48 396.94 559.601Z" fill="#43230A"/>
            <path id="Vector_11" d="M371.65 586.007C371.65 586.007 360.82 594.523 359.21 600.108C357.64 605.526 362.26 609.801 368.44 608.916C376.09 607.819 383.04 600.197 383.04 600.197C383.04 600.197 381.04 605.561 382.68 608.633C384.93 612.758 390.62 613.263 394.81 610.403C400.18 606.739 408.86 593.7 408.86 593.7C408.86 593.7 405.86 601.126 411.56 603.021C420.56 606.03 433.88 580.094 433.88 580.094" fill="#A0752A"/>
            <path id="Vector_12" d="M396.94 559.601L362.13 586.892L438.2 579.704" stroke="black" stroke-width="3" stroke-linecap="round" stroke-linejoin="round"/>
            <path id="Vector_13" d="M371.65 586.184C371.65 586.184 360.82 594.7 359.21 600.285C357.64 605.703 362.26 610.023 368.44 609.138C376.09 608.04 383.04 600.418 383.04 600.418C383.04 600.418 381.04 605.783 382.68 608.854C384.93 612.97 390.62 613.484 394.81 610.625C400.18 606.96 408.86 593.912 408.86 593.912C408.86 593.912 405.86 601.348 411.56 603.242C420.56 606.252 433.88 580.306 433.88 580.306" stroke="black" stroke-width="3" stroke-linecap="round" stroke-linejoin="round"/>
            <path id="Vector_14" d="M383.04 600.374L388.56 591.973" stroke="black" stroke-width="3" stroke-linecap="round" stroke-linejoin="round"/>
            <path id="Vector_15" d="M364.73 608.73C364.797 608.761 364.852 608.809 364.885 608.869C364.919 608.929 364.929 608.996 364.916 609.062C364.902 609.128 364.865 609.188 364.81 609.233C364.755 609.279 364.685 609.307 364.61 609.315C363.615 609.351 362.675 609.729 361.99 610.368C361.15 611.253 360.9 612.909 361.08 614.511C361.087 614.569 361.075 614.627 361.044 614.679C361.014 614.731 360.966 614.773 360.908 614.801C360.85 614.829 360.784 614.84 360.718 614.834C360.653 614.828 360.591 614.805 360.54 614.767C359.424 613.911 358.536 612.847 357.94 611.651C356.94 609.394 356.78 606.137 358.88 603.8C358.914 603.762 358.959 603.733 359.01 603.715C359.06 603.697 359.115 603.691 359.17 603.697C359.224 603.704 359.275 603.722 359.319 603.751C359.363 603.779 359.398 603.818 359.42 603.862C360.026 604.988 360.767 606.054 361.63 607.04C362.597 607.694 363.635 608.26 364.73 608.73V608.73Z" fill="black"/>
            <path id="Vector_16" d="M388.6 612.475C388.66 612.492 388.712 612.526 388.749 612.571C388.786 612.617 388.806 612.671 388.806 612.727C388.806 612.783 388.786 612.837 388.749 612.883C388.712 612.928 388.66 612.962 388.6 612.979C387.765 613.106 387.017 613.512 386.51 614.112C385.931 615.222 385.825 616.48 386.21 617.653C386.227 617.703 386.226 617.756 386.208 617.805C386.189 617.854 386.153 617.896 386.106 617.927C386.059 617.957 386.002 617.973 385.943 617.973C385.885 617.974 385.828 617.958 385.78 617.928C384.751 617.313 383.89 616.503 383.26 615.555C382.61 614.538 382.261 613.392 382.245 612.224C382.229 611.055 382.547 609.902 383.17 608.872C383.194 608.837 383.228 608.808 383.268 608.789C383.309 608.769 383.354 608.758 383.4 608.758C383.446 608.758 383.491 608.769 383.532 608.789C383.572 608.808 383.606 608.837 383.63 608.872C384.268 609.758 385.008 610.583 385.84 611.333C386.714 611.795 387.639 612.178 388.6 612.475V612.475Z" fill="black"/>
            <path id="Vector_17" d="M413.83 604.11C413.877 604.13 413.916 604.163 413.941 604.203C413.966 604.244 413.975 604.291 413.969 604.337C413.962 604.383 413.939 604.426 413.904 604.459C413.868 604.493 413.821 604.516 413.77 604.526C413.058 604.581 412.398 604.879 411.93 605.358C411.356 606.261 411.178 607.32 411.43 608.332C411.437 608.374 411.431 608.416 411.41 608.455C411.39 608.493 411.358 608.525 411.317 608.547C411.276 608.569 411.229 608.579 411.182 608.577C411.134 608.575 411.088 608.561 411.05 608.536C410.213 607.961 409.53 607.23 409.05 606.393C408.576 605.501 408.364 604.517 408.434 603.533C408.504 602.549 408.854 601.596 409.45 600.763C409.471 600.734 409.499 600.71 409.534 600.693C409.568 600.677 409.606 600.668 409.645 600.668C409.684 600.668 409.722 600.677 409.756 600.693C409.791 600.71 409.819 600.734 409.84 600.763C410.31 601.549 410.873 602.288 411.52 602.968C412.247 603.413 413.021 603.795 413.83 604.11V604.11Z" fill="black"/>
        </g>
        <g id="Hand">
            <path id="Vector_18" d="M346.72 292.49C346.72 292.49 308.93 294.641 287.85 258.18L272.55 226.808C272.55 226.808 256.08 195.055 224 186.487L193.88 212.742L202.59 252.452L209.87 279.531C213.056 286.894 218.251 293.446 224.991 298.601C231.731 303.757 239.807 307.356 248.5 309.079L277.26 313.018C277.26 313.018 312.14 312.514 310.77 342.752C310.77 342.752 323.61 316.293 351.77 297.226L346.72 292.49Z" fill="#725514"/>
            <path id="Vector_19" d="M260.84 267.333C260.56 266.084 239.27 202.155 223.53 186.779C212.58 176.077 196.08 179.29 191.09 186.779C182.83 199.11 201.73 220.169 209.43 228.596C224.89 245.494 260.84 267.333 260.84 267.333Z" fill="#8E681C"/>
            <path id="Vector_20" d="M195.42 210.98C195.42 210.98 179.97 223.621 193.42 244.229C203.32 259.383 253.23 279.832 253.23 279.832L236 250.815" fill="#8E681C"/>
            <path id="Vector_21" d="M202.13 252.762C202.13 252.762 197.54 261.827 204.84 273.272C210.41 282.018 225.34 291.1 235.16 294.349C241.39 296.412 262.87 300.484 262.87 300.484L243.59 275.636" fill="#8E681C"/>
            <path id="Vector_22" d="M195.87 210.679C195.87 210.679 215.55 239.112 237.57 251.31L251.34 276.618C251.34 276.618 235.7 256.905 229.4 252.452C217.48 244.025 181.38 223.621 195.87 210.679Z" fill="#4F3810"/>
            <path id="Vector_23" d="M195 183.043C195 183.043 238.37 195.48 248.75 259.02L260.75 267.341L253.62 247.079L238.16 207.245C238.16 207.245 223 168.278 195 183.043Z" fill="#4F3810"/>
            <path id="Vector_24" d="M237 299.589C237 299.589 245.2 304.201 270.81 305.644C285.74 306.529 301.93 307.751 311.81 325.03C311.981 325.334 312.24 325.592 312.56 325.778C312.881 325.963 313.252 326.07 313.634 326.087C314.017 326.105 314.398 326.031 314.738 325.875C315.078 325.719 315.365 325.485 315.57 325.199C326.37 309.752 345 292.508 345 292.508L351.21 297.226C351.21 297.226 320.92 321.127 311.85 340.876C311.85 340.876 309.78 314.319 283.18 313.275L256.18 310.3L237 305.565V299.589Z" fill="#4F3810"/>
            <path id="Vector_25" d="M346.72 292.49C346.72 292.49 303.05 298.74 280.13 242.697C269.75 217.318 256.56 200.145 226.51 187.664" stroke="black" stroke-width="3" stroke-linecap="round" stroke-linejoin="round"/>
            <path id="Vector_26" d="M310.72 342.814C310.72 342.814 312.39 323.083 293.49 316.258C282.21 312.195 250.15 311.124 239.08 306.627C214.64 296.677 209.23 277.787 209.23 277.787" stroke="black" stroke-width="3" stroke-linecap="round" stroke-linejoin="round"/>
            <path id="Vector_27" d="M261.3 267.032C261.02 265.792 239.72 201.863 223.99 186.478C212.99 175.776 196.54 178.98 191.55 186.478C183.28 198.809 202.18 219.868 209.89 228.304C225.35 245.202 261.3 267.032 261.3 267.032Z" stroke="black" stroke-width="3" stroke-linecap="round" stroke-linejoin="round"/>
            <path id="Vector_28" d="M195.87 210.679C195.87 210.679 180.42 223.32 193.87 243.928C203.78 259.082 253.69 279.531 253.69 279.531L236.45 250.514" stroke="black" stroke-width="3" stroke-linecap="round" stroke-linejoin="round"/>
            <path id="Vector_29" d="M202.58 252.452C202.58 252.452 198 261.526 205.29 272.971C210.87 281.717 225.8 290.791 235.62 294.039C241.85 296.111 263.33 300.183 263.33 300.183L244.05 275.299" stroke="black" stroke-width="3" stroke-linecap="round" stroke-linejoin="round"/>
            <path id="Vector_30" d="M202.13 252.762L201.13 259.383C201.13 259.383 211.88 270.068 232.44 277.902C238.677 280.266 244.06 284.103 248 288.994L255.84 298.731L262.9 299.616L244.05 275.299C244.05 275.299 208.5 258.374 202.13 252.762Z" fill="#4F3810"/>
        </g>
        <g id="Badge">
            <g id="Flag">
                <path id="Vector_31" d="M221.12 15.5886C221.12 15.5886 193.6 -2.45192 149.38 0.28337C108.74 2.79736 89.07 22.1303 65.1 24.901C54 26.2088 42.7168 25.5411 31.9121 22.9373C21.1075 20.3334 10.9991 15.8456 2.18001 9.73738C1.98603 9.59903 1.75231 9.51129 1.50512 9.484C1.25792 9.45671 1.00703 9.49097 0.780602 9.58291C0.554176 9.67485 0.361186 9.82084 0.223299 10.0045C0.0854127 10.1881 0.00808851 10.4022 8.58279e-06 10.6226V126.735C-0.00187978 127.699 0.307875 128.642 0.892659 129.455C1.47744 130.268 2.31281 130.915 3.30001 131.321C12.2 134.968 37.72 144.439 62.81 144.439C98.05 144.439 121.81 121.725 165.81 122.079C199.42 122.353 221.13 144.439 221.13 144.439L221.12 15.5886Z" fill="white"/>
                <path id="Vector_32" d="M221.12 15.5886C221.12 15.5886 193.6 -2.45192 149.38 0.28337C108.74 2.79736 89.07 22.1303 65.1 24.901C54 26.2088 42.7168 25.5411 31.9121 22.9373C21.1075 20.3334 10.9991 15.8456 2.18001 9.73738C1.98603 9.59903 1.75231 9.51129 1.50512 9.484C1.25792 9.45671 1.00703 9.49097 0.780602 9.58291C0.554176 9.67485 0.361186 9.82084 0.223299 10.0045C0.0854127 10.1881 0.00808851 10.4022 8.58279e-06 10.6226V126.735C-0.00187978 127.699 0.307875 128.642 0.892659 129.455C1.47744 130.268 2.31281 130.915 3.30001 131.321C12.2 134.968 37.72 144.439 62.81 144.439C98.05 144.439 121.81 121.725 165.81 122.079C199.42 122.353 221.13 144.439 221.13 144.439L221.12 15.5886Z" stroke="black" stroke-width="3" stroke-miterlimit="10" stroke-linecap="round"/>
                <path id="Vector_33" d="M221.12 60.8934C221.12 60.8934 205.4 47.5533 179.43 45.8449C179.43 45.8449 180.98 23.4226 182.27 2.33696C182.27 2.33696 199.41 1.58453 221.12 15.5442V60.8934Z" fill="black"/>
                <path id="Vector_34" d="M179.43 45.8891C163.13 40.3036 145.171 39.7793 128.49 44.402L128.62 87.7771C128.62 87.7771 154.56 83.5281 178.88 89.6183L179.43 45.8891Z" fill="black"/>
                <path id="Vector_35" d="M86.49 18.731L85.88 58.8043C103.01 48.1818 128.49 44.402 128.49 44.402L131.05 2.79724L120.57 4.85092L106.36 10.0205" fill="black"/>
                <path id="Vector_36" d="M85.88 58.8043L84.48 97.6738C84.48 97.6738 59.59 104.968 39.68 101.321L39 64.4696C46.8312 66.4515 55.0422 66.9713 63.1123 65.996C71.1824 65.0208 78.9355 62.5718 85.88 58.8043V58.8043Z" fill="black"/>
                <path id="Vector_37" d="M39 24.3432V64.4696C39 64.4696 12 62.1061 6.72367e-06 51.1915V10.534C-0.000783812 10.3172 0.0681514 10.1047 0.198754 9.9213C0.329357 9.73792 0.516231 9.59123 0.737531 9.49839C0.958832 9.40555 1.20541 9.37039 1.44846 9.39701C1.6915 9.42364 1.92096 9.51096 2.11001 9.64876C12.8634 17.1448 25.5304 22.1905 39 24.3432V24.3432Z" fill="black"/>
                <path id="Vector_38" d="M39.68 101.321C39.68 101.321 11.45 102.091 0 93.416V128.479C0.00115189 128.905 0.141525 129.321 0.40416 129.678C0.666795 130.034 1.04046 130.316 1.48 130.488L20.4 137.853L39 141.474L39.68 101.321Z" fill="black"/>
                <path id="Vector_39" d="M178.88 89.6095V123.247C178.88 123.247 200.38 125.08 221.12 144.43V107.588C221.12 107.588 204.79 95.2571 178.88 89.6095Z" fill="black"/>
                <path id="Vector_40" d="M128.62 87.7683V127.355L85.33 141.474L84.48 97.6738C84.48 97.6738 102.59 89.6095 128.62 87.7683Z" fill="black"/>
            </g>
            <path id="Vector_41" d="M237 294.393V346.169C237 346.512 236.846 346.841 236.572 347.083C236.299 347.325 235.927 347.461 235.54 347.461H222C221.613 347.461 221.241 347.325 220.968 347.083C220.694 346.841 220.54 346.512 220.54 346.169L220.12 286.391C220.12 286.391 228.45 289.303 230.89 292.207C232.83 294.5 237 294.393 237 294.393Z" fill="black"/>
            <path id="Vector_42" d="M221.12 184.362V7.36493C221.12 6.85313 221.35 6.36229 221.759 6.00039C222.167 5.63849 222.722 5.43518 223.3 5.43518H235.39C235.968 5.43518 236.523 5.63849 236.931 6.00039C237.34 6.36229 237.57 6.85313 237.57 7.36493V123.522L238.81 205.908" fill="black"/>
            <path id="Vector_43" d="M238.25 207.262L237.57 122.353V7.51545C237.57 6.65383 237.183 5.82751 236.495 5.21826C235.807 4.60901 234.873 4.26674 233.9 4.26674H224.8C224.317 4.26557 223.839 4.34874 223.392 4.51148C222.946 4.67422 222.54 4.91334 222.198 5.21513C221.857 5.51691 221.585 5.87544 221.4 6.27017C221.215 6.6649 221.12 7.08807 221.12 7.51545V183.84L225.77 188.408L229.35 188.222L238.25 207.262Z" stroke="black" stroke-width="3" stroke-miterlimit="10" stroke-linecap="round"/>
            <path id="Vector_44" d="M237 294.393V345.496C237.001 345.755 236.945 346.011 236.834 346.25C236.723 346.489 236.559 346.706 236.353 346.889C236.146 347.071 235.901 347.216 235.631 347.314C235.361 347.413 235.072 347.463 234.78 347.461H222.78C222.488 347.463 222.198 347.413 221.927 347.314C221.657 347.216 221.411 347.072 221.204 346.889C220.997 346.706 220.832 346.489 220.72 346.25C220.608 346.011 220.55 345.755 220.55 345.496L220.13 286.391" stroke="black" stroke-width="3" stroke-miterlimit="10" stroke-linecap="round"/>
        </g>
        <g id="Body">
            <path id="Vector_45" d="M567.41 536.772C537.431 558.351 499.959 570.113 461.32 570.073C367.62 570.073 291.66 502.125 291.66 418.313C291.66 370.512 313.08 324.411 351.73 296.597C342.98 288.055 339.49 281.151 334.59 269.413L351.18 263.933L357.65 251.806L324.5 231.092C324.5 231.092 311 133.082 429 102.923C429 102.923 480.53 92.4333 523.57 116.679L567.42 111.368L555.42 130.232L588.42 128.027L566.91 156.354C566.91 156.354 608 231.101 551.5 284.01C551.5 284.01 592.08 302.936 607.26 342.495C607.26 342.495 638.62 369.547 639.88 437.699C639.88 437.699 644.77 503.807 591.81 530.921L567.41 536.772Z" fill="#FBBB10"/>
            <path id="Vector_46" d="M317.36 332.077C317.36 332.077 372.85 358.314 342.07 467.08C342.07 467.08 328.07 498.85 320.26 504.019C320.26 504.019 288.46 471.364 291.14 408.355C291.14 408.355 293.67 364.236 317.36 332.077Z" fill="#FFD685"/>
            <path id="Vector_47" d="M294.36 386.136C305.814 387.938 316.764 391.693 326.6 397.192C326.6 397.192 326.31 412.861 316.47 423.306L315.78 407.372C315.78 407.372 312.43 400.397 292.26 398.52" fill="#430E6B"/>
            <path id="Vector_48" d="M317.36 332.077C317.36 332.077 337.73 341.708 346.72 374.319C351.45 391.474 356.46 424.643 342.13 465.84C337.323 479.567 329.929 492.475 320.26 504.019" stroke="black" stroke-width="3" stroke-linecap="round" stroke-linejoin="round"/>
            <path id="Vector_49" d="M343.11 269.103C352.337 278.959 364.229 286.591 377.68 291.289C391.131 295.988 405.706 297.601 420.05 295.978C466.85 290.817 500.12 253.488 494.37 212.591C494.37 212.591 507.45 239.316 480.94 272.422C459.03 299.784 409.94 309.982 376.44 296.509C349.68 285.701 343.11 269.103 343.11 269.103Z" fill="#D89A0F"/>
            <path id="Vector_50" d="M474.79 326.402C474.79 326.402 453.41 333.484 420.85 329.306C430.586 334.434 441.547 337.467 452.85 338.158L474.79 326.402Z" fill="#D89A0F"/>
            <path id="Vector_51" d="M566.87 537.4C536.89 558.979 499.42 570.744 460.78 570.711C367.08 570.711 291.12 502.762 291.12 418.942C291.12 371.141 312.54 325.048 351.18 297.226C342.44 288.684 338.94 281.779 334.05 270.05" stroke="black" stroke-width="3" stroke-linecap="round" stroke-linejoin="round"/>
            <path id="Vector_52" d="M522.07 115.882C522.07 115.882 437.26 69.3029 358.9 139.314C358.9 139.314 391.99 112.501 432.49 108.332C456.73 105.844 477.43 105.844 513.84 118.343L522.07 115.882Z" fill="#FFCD5C"/>
            <path id="Vector_53" d="M323.4 508.003C323.4 508.003 380 567.683 480 560.495C494.6 559.442 537.47 547.509 548 537.33L554.81 535.249L567.45 536.772C567.45 536.772 515.62 582.36 425.89 567.683C425.85 567.683 360.85 556.521 323.4 508.003Z" fill="#D89A0F"/>
            <path id="Vector_54" d="M300.38 468.956C309.126 458.536 314.017 445.976 314.38 432.999C295.38 430.131 291 421.553 291 421.553L292.44 437.885L303.5 444.374L301.5 451.5L296.5 456.891" fill="#430E6B"/>
            <path id="Vector_55" d="M294.53 386.136C305.981 387.939 316.927 391.694 326.76 397.192C326.76 397.192 326.47 412.861 316.63 423.306L315.94 407.372C315.94 407.372 312.59 400.397 292.42 398.52" stroke="black" stroke-width="3" stroke-linecap="round" stroke-linejoin="round"/>
            <path id="Vector_56" d="M291.14 421.553C291.14 421.553 295.56 430.131 314.52 432.999C314.155 445.976 309.265 458.536 300.52 468.956" stroke="black" stroke-width="3" stroke-linecap="round" stroke-linejoin="round"/>
            <path id="Vector_57" d="M292.33 437.221C292.33 437.221 298.5 442.825 303.84 444.188C303.84 444.188 301.24 454.589 296.63 457.466" stroke="black" stroke-width="3" stroke-linecap="round" stroke-linejoin="round"/>
        </g>
        <g id="Hearing">
            <path id="Vector_58" d="M324.72 220.815C324.72 220.815 317.16 188.947 361.28 155.664C361.28 155.664 377.59 132.533 483.22 121.893L569.45 111.731L555.45 130.834L456.75 141.952L411.45 149.14C411.45 149.14 338.53 161.373 324.72 220.815Z" fill="#725514"/>
            <path id="Vector_59" d="M563 120.388C563 120.388 490.88 128.603 462.6 132.861C421.45 139.057 338.44 149.857 325.09 213.025L324.71 220.788L332.01 200.597C332.01 200.597 349.46 160.311 422.22 146.909L504.81 135.95L555.86 131.073L563 120.388Z" fill="#4F3810"/>
            <path id="Vector_60" d="M325.08 231.721C325.08 198.968 348.3 174.023 379.37 159.806L379.46 159.762C420.23 139.5 588.38 128.629 588.38 128.629L566.55 156.434L563.3 183.787" stroke="black" stroke-width="3" stroke-linecap="round" stroke-linejoin="round"/>
            <path id="Vector_61" d="M325.08 231.721C324.62 226.737 324.5 222.869 324.5 217.619C324.5 153.734 385.5 100.71 457.67 100.71C482.25 100.71 504.67 106.482 523.56 116.644" stroke="black" stroke-width="3" stroke-linecap="round" stroke-linejoin="round"/>
            <path id="Vector_62" d="M325.1 206.625C331.76 176.2 360.1 154.451 373.87 146.776C389.16 138.243 405.66 135.012 415.8 132.87C441.93 127.337 451.95 125.584 569.45 111.731L555.87 131.099" stroke="black" stroke-width="3" stroke-linecap="round" stroke-linejoin="round"/>
        </g>
        <g id="Eyes">
            <path id="Vector_63" d="M422.12 148.325C459.63 152.663 489.38 178.13 494.22 212.503C499.97 253.399 466.7 290.729 419.9 295.889C405.428 297.481 390.737 295.793 377.203 290.986C363.669 286.179 351.735 278.409 342.52 268.404L351.6 264.615L358.31 252.7L325 231.296C324.755 221.281 327.012 211.343 331.61 202.19C339.22 187.239 357.61 172.438 357.61 172.438L375.75 161.108L393.75 154.451L422.12 148.325Z" fill="white"/>
            <path id="Vector_64" d="M392.29 242.75C412.559 242.75 428.99 228.392 428.99 210.679C428.99 192.967 412.559 178.608 392.29 178.608C372.021 178.608 355.59 192.967 355.59 210.679C355.59 228.392 372.021 242.75 392.29 242.75Z" fill="#DAA520"/>
            <path id="Vector_65" d="M387.84 232.641C400.868 232.641 411.43 223.411 411.43 212.025C411.43 200.639 400.868 191.408 387.84 191.408C374.812 191.408 364.25 200.639 364.25 212.025C364.25 223.411 374.812 232.641 387.84 232.641Z" fill="#411F0A"/>
            <path id="Vector_66" d="M398.26 207.262C404.015 207.262 408.68 203.184 408.68 198.154C408.68 193.123 404.015 189.045 398.26 189.045C392.505 189.045 387.84 193.123 387.84 198.154C387.84 203.184 392.505 207.262 398.26 207.262Z" fill="white"/>
        </g>
        <g id="HandLeft">
            <path id="Vector_67" d="M525 302.829L463.86 332.041C463.86 332.041 365.63 376.372 387.86 460.334C387.86 460.334 397.74 512.942 469.08 526.415C469.08 526.415 505.58 554.334 554.79 535.214C554.79 535.214 589.46 544.199 612.94 516.058C612.94 516.058 645.25 494.627 638.56 418.03C638.56 418.03 634.33 371.822 605.7 340.84C605.7 340.84 595.78 322.047 591.11 316.709C579.99 304.18 566.849 293.165 552.11 284.019" fill="#725514"/>
            <path id="Vector_68" d="M388.79 409.32C388.79 409.32 365.46 470.311 429 512.65C429 512.65 449.95 525.202 470.5 527.495C470.5 527.495 498.5 546.607 523.12 542.163C523.12 542.163 547.12 540.145 551.51 534.479C551.51 534.479 587.81 545.509 614.17 515.129C614.17 515.129 550.37 548.315 499.39 492.273C499.39 492.273 509.39 518.829 539.75 530.469C539.75 530.469 468.38 540.587 439.31 470.992C439.31 470.992 436.39 492.945 458.85 517.165C458.84 517.165 385.66 490.874 388.79 409.32Z" fill="#4F3810"/>
            <path id="Vector_69" d="M551.5 284.63C551.5 284.63 591.8 306.131 605.68 340.876L578.18 320.578C578.18 320.578 574 303.785 551.5 284.63Z" fill="#4F3810"/>
            <path id="Vector_70" d="M566.55 156.434C581.01 180.175 582.55 211.671 580.55 230.313C578.94 245.016 570.93 265.049 556.24 279.885L551.49 284.629C551.49 284.629 588.84 302.183 607.25 343.115" stroke="black" stroke-width="3" stroke-linecap="round" stroke-linejoin="round"/>
            <path id="Vector_71" d="M420.85 329.297C448.66 335.007 478.14 325.429 478.14 325.429" stroke="black" stroke-width="3" stroke-linecap="round" stroke-linejoin="round"/>
            <path id="Vector_72" d="M439.3 470.992C439.272 481.894 442.07 492.657 447.477 502.452C452.884 512.248 460.757 520.815 470.49 527.495C420.49 519.094 384.49 484.483 384.49 435.734C384.49 404.752 403.58 376.726 424.49 357.65C456.19 328.713 513.85 315.213 551.49 284.63" stroke="black" stroke-width="3" stroke-linecap="round" stroke-linejoin="round"/>
            <path id="Vector_73" d="M499.38 492.264C503.282 501.083 509.136 509.122 516.6 515.908C524.064 522.695 532.985 528.091 542.84 531.779C546.352 533.091 549.968 534.171 553.66 535.01C559.96 536.453 570.75 537.055 578.31 535.745C603.6 531.319 626.04 508.304 634.53 478.481C646.92 435.044 637.53 377.674 608.71 344.54C599.557 335.585 589.319 327.549 578.18 320.578" stroke="black" stroke-width="3" stroke-linecap="round" stroke-linejoin="round"/>
            <path id="Vector_74" d="M542.84 531.779C546.352 533.091 549.968 534.171 553.66 535.01C540.393 540.778 525.563 543.131 510.858 541.802C496.154 540.473 482.167 535.516 470.49 527.495C460.757 520.815 452.884 512.248 447.477 502.452C442.07 492.657 439.272 481.894 439.3 470.992" stroke="black" stroke-width="3" stroke-linecap="round" stroke-linejoin="round"/>
        </g>
    </g>
    <defs>
        <clipPath id="clip0_401_3">
            <rect width="640" height="748" fill="white"/>
        </clipPath>
    </defs>
</svg>
