<svg width="642" height="847" viewBox="0 0 642 847" fill="none" xmlns="http://www.w3.org/2000/svg">
<g id="MarchaRegreso" clip-path="url(#clip0_412_181)">
<g id="FootRight">
<path id="Vector" d="M291.698 598.53L325.698 628.66L250.538 621.2L249.438 609.69C249.438 609.69 273.858 607.41 291.698 598.53Z" fill="#33230A"/>
<path id="Vector_2" d="M316.949 628.34C316.949 628.34 327.769 637.96 329.379 644.26C330.949 650.37 326.379 655.2 320.159 654.2C312.539 652.96 305.539 644.36 305.539 644.36C305.539 644.36 307.539 650.36 305.899 653.87C303.649 658.53 297.969 659.1 293.789 655.87C288.429 651.74 279.789 637.02 279.789 637.02C279.789 637.02 282.789 645.41 277.089 647.54C268.089 650.95 254.809 621.67 254.809 621.67" fill="#A0752A"/>
<path id="Vector_3" d="M326.459 630.81H326.299L250.349 622.7C250.152 622.679 249.961 622.62 249.787 622.525C249.613 622.43 249.459 622.302 249.335 622.148C249.21 621.994 249.117 621.816 249.061 621.626C249.005 621.436 248.987 621.237 249.009 621.04C249.03 620.843 249.089 620.652 249.184 620.478C249.279 620.304 249.407 620.151 249.561 620.026C249.715 619.902 249.892 619.809 250.082 619.753C250.272 619.697 250.472 619.679 250.669 619.7L321.949 627.31L290.709 599.63C290.41 599.365 290.229 598.992 290.206 598.594C290.182 598.195 290.318 597.804 290.584 597.505C290.849 597.207 291.222 597.026 291.62 597.003C292.019 596.979 292.41 597.115 292.709 597.38L327.468 628.18C327.696 628.383 327.856 628.649 327.928 628.945C328 629.24 327.981 629.551 327.872 629.835C327.764 630.119 327.571 630.364 327.321 630.536C327.07 630.709 326.773 630.801 326.468 630.8L326.459 630.81Z" fill="black"/>
<path id="Vector_4" d="M299.479 659.58C297.089 659.543 294.779 658.717 292.909 657.23C289.529 654.62 285.009 648.23 281.909 643.47C281.791 644.721 281.323 645.914 280.559 646.911C279.795 647.908 278.766 648.671 277.589 649.11C276.951 649.356 276.272 649.482 275.589 649.48C266.209 649.48 255.589 627.21 253.449 622.48C253.353 622.299 253.296 622.1 253.28 621.896C253.264 621.692 253.291 621.487 253.357 621.293C253.424 621.099 253.529 620.921 253.667 620.77C253.805 620.619 253.973 620.497 254.159 620.413C254.346 620.329 254.548 620.284 254.753 620.281C254.958 620.278 255.161 620.317 255.35 620.395C255.539 620.474 255.71 620.59 255.853 620.737C255.995 620.884 256.106 621.059 256.179 621.25C261.449 632.87 271.259 648.34 276.559 646.34C280.779 644.75 278.399 637.79 278.379 637.72C278.263 637.371 278.28 636.992 278.425 636.655C278.571 636.317 278.835 636.045 279.168 635.889C279.501 635.734 279.88 635.706 280.232 635.812C280.584 635.917 280.885 636.148 281.079 636.46C281.169 636.6 289.659 650.98 294.729 654.88C295.579 655.578 296.573 656.08 297.639 656.351C298.705 656.623 299.818 656.656 300.899 656.45C301.7 656.264 302.448 655.896 303.086 655.376C303.724 654.856 304.234 654.198 304.579 653.45C305.729 651.07 304.659 646.59 304.149 645.06C304.039 644.727 304.049 644.366 304.177 644.039C304.305 643.713 304.542 643.441 304.849 643.27C305.156 643.1 305.514 643.045 305.859 643.114C306.203 643.184 306.511 643.374 306.729 643.65C306.799 643.73 313.419 651.81 320.389 652.95C321.503 653.182 322.658 653.129 323.747 652.797C324.836 652.465 325.823 651.864 326.619 651.05C327.339 650.211 327.835 649.204 328.063 648.122C328.29 647.04 328.24 645.918 327.919 644.86C326.689 640.05 318.859 632.28 315.919 629.69C315.772 629.559 315.652 629.4 315.566 629.222C315.481 629.045 315.431 628.852 315.42 628.655C315.408 628.458 315.436 628.261 315.501 628.075C315.566 627.889 315.667 627.717 315.799 627.57C315.93 627.423 316.089 627.303 316.267 627.218C316.444 627.132 316.637 627.082 316.834 627.071C317.031 627.06 317.228 627.088 317.414 627.153C317.6 627.218 317.772 627.319 317.919 627.45C318.369 627.86 329.089 637.45 330.799 644.11C331.256 645.657 331.312 647.294 330.962 648.869C330.612 650.443 329.868 651.903 328.799 653.11C327.671 654.296 326.262 655.177 324.702 655.672C323.143 656.167 321.483 656.259 319.879 655.94C315.219 655.19 310.879 652 308.009 649.36C308.224 651.205 307.963 653.075 307.249 654.79C306.714 655.944 305.924 656.962 304.938 657.766C303.952 658.57 302.797 659.139 301.559 659.43C300.874 659.561 300.175 659.612 299.479 659.58Z" fill="black"/>
<path id="Vector_5" d="M305.539 646.03C305.277 646.03 305.02 645.96 304.793 645.828C304.567 645.697 304.379 645.508 304.249 645.28L298.739 635.8C298.552 635.462 298.503 635.064 298.604 634.691C298.705 634.318 298.947 633.998 299.279 633.8C299.623 633.603 300.031 633.549 300.414 633.65C300.798 633.751 301.126 633.999 301.329 634.34L306.839 643.82C307.022 644.16 307.068 644.558 306.965 644.931C306.863 645.303 306.62 645.622 306.289 645.82C306.063 645.958 305.803 646.03 305.539 646.03V646.03Z" fill="black"/>
<path id="Vector_6" d="M323.859 653.96C323.797 653.998 323.748 654.054 323.719 654.12C323.689 654.186 323.68 654.26 323.693 654.331C323.706 654.403 323.74 654.468 323.791 654.52C323.842 654.571 323.907 654.606 323.979 654.62C324.973 654.661 325.913 655.088 326.599 655.81C327.439 656.81 327.689 658.67 327.509 660.48C327.501 660.546 327.514 660.612 327.544 660.671C327.575 660.729 327.622 660.777 327.68 660.808C327.738 660.839 327.805 660.852 327.87 660.846C327.936 660.839 327.998 660.813 328.049 660.77C329.165 659.806 330.05 658.603 330.639 657.25C331.639 654.71 331.799 651.03 329.709 648.39C329.673 648.348 329.628 648.315 329.576 648.295C329.525 648.275 329.469 648.269 329.415 648.275C329.36 648.282 329.308 648.303 329.263 648.335C329.218 648.368 329.182 648.41 329.159 648.46C328.56 649.734 327.822 650.938 326.959 652.05C325.992 652.789 324.953 653.429 323.859 653.96V653.96Z" fill="black"/>
<path id="Vector_7" d="M300.028 658.19C299.967 658.207 299.913 658.243 299.874 658.294C299.835 658.344 299.814 658.406 299.814 658.47C299.814 658.534 299.835 658.596 299.874 658.647C299.913 658.697 299.967 658.734 300.028 658.75C300.864 658.892 301.61 659.355 302.108 660.04C302.699 661.29 302.81 662.714 302.418 664.04C302.406 664.094 302.41 664.15 302.43 664.202C302.45 664.253 302.484 664.298 302.529 664.33C302.574 664.362 302.627 664.38 302.682 664.382C302.737 664.384 302.792 664.369 302.838 664.34C303.87 663.653 304.732 662.74 305.358 661.67C306.011 660.524 306.362 659.231 306.378 657.912C306.394 656.593 306.074 655.292 305.448 654.13C305.423 654.093 305.388 654.063 305.348 654.042C305.308 654.021 305.264 654.01 305.218 654.01C305.173 654.01 305.129 654.021 305.089 654.042C305.049 654.063 305.014 654.093 304.988 654.13C304.359 655.137 303.618 656.07 302.778 656.91C301.907 657.428 300.986 657.856 300.028 658.19Z" fill="black"/>
<path id="Vector_8" d="M274.839 648.74C274.791 648.763 274.753 648.8 274.728 648.846C274.703 648.892 274.693 648.945 274.7 648.997C274.706 649.049 274.729 649.097 274.765 649.135C274.8 649.174 274.847 649.2 274.899 649.21C275.608 649.271 276.266 649.609 276.729 650.15C277.306 651.169 277.488 652.366 277.239 653.51C277.231 653.557 277.238 653.605 277.258 653.649C277.278 653.692 277.311 653.728 277.351 653.753C277.392 653.777 277.439 653.789 277.487 653.787C277.534 653.785 277.58 653.769 277.619 653.74C278.438 653.086 279.104 652.26 279.569 651.32C280.042 650.314 280.254 649.204 280.184 648.094C280.114 646.984 279.765 645.909 279.169 644.97C279.148 644.937 279.119 644.91 279.085 644.891C279.051 644.872 279.013 644.862 278.974 644.862C278.935 644.862 278.896 644.872 278.862 644.891C278.828 644.91 278.799 644.937 278.779 644.97C278.313 645.857 277.749 646.689 277.099 647.45C276.393 647.958 275.635 648.391 274.839 648.74V648.74Z" fill="black"/>
</g>
<g id="Foot">
    <path id="Vector_39" d="M244.16 633L278.16 663.13L203 655.67L201.9 644.16C201.9 644.16 226.32 641.88 244.16 633Z" fill="#33230A"/>
    <path id="Vector_40" d="M269.41 662.81C269.41 662.81 280.23 672.43 281.84 678.73C283.41 684.84 278.84 689.67 272.62 688.67C265 687.43 258 678.83 258 678.83C258 678.83 260 684.83 258.36 688.34C256.11 693 250.43 693.57 246.25 690.34C240.89 686.21 232.25 671.49 232.25 671.49C232.25 671.49 235.25 679.88 229.55 682.01C220.55 685.42 207.27 656.14 207.27 656.14" fill="#A0752A"/>
    <path id="Vector_41" d="M278.92 665.28H278.76L202.81 657.17C202.613 657.149 202.422 657.089 202.248 656.995C202.074 656.9 201.921 656.772 201.796 656.617C201.672 656.463 201.579 656.286 201.523 656.096C201.467 655.906 201.449 655.707 201.47 655.51C201.491 655.313 201.551 655.122 201.645 654.948C201.74 654.774 201.868 654.621 202.022 654.496C202.177 654.372 202.354 654.279 202.544 654.223C202.734 654.167 202.933 654.149 203.13 654.17L274.41 661.78L243.17 634.1C242.872 633.835 242.691 633.462 242.667 633.063C242.644 632.665 242.78 632.273 243.045 631.975C243.31 631.677 243.683 631.496 244.082 631.472C244.48 631.449 244.872 631.585 245.17 631.85L279.93 662.65C280.157 662.852 280.317 663.119 280.389 663.415C280.462 663.71 280.442 664.021 280.334 664.305C280.225 664.589 280.033 664.834 279.782 665.006C279.531 665.178 279.234 665.27 278.93 665.27L278.92 665.28Z" fill="black"/>
    <path id="Vector_42" d="M251.94 694.05C249.551 694.013 247.241 693.187 245.37 691.7C241.99 689.09 237.47 682.7 234.37 677.94C234.252 679.191 233.785 680.383 233.021 681.381C232.257 682.378 231.227 683.14 230.05 683.58C229.412 683.826 228.734 683.952 228.05 683.95C218.67 683.95 208.05 661.68 205.91 656.95C205.815 656.769 205.757 656.57 205.741 656.366C205.726 656.162 205.752 655.957 205.819 655.763C205.885 655.569 205.991 655.391 206.129 655.24C206.267 655.089 206.434 654.967 206.621 654.883C206.808 654.799 207.01 654.754 207.214 654.751C207.419 654.748 207.622 654.787 207.811 654.865C208.001 654.943 208.172 655.06 208.314 655.207C208.457 655.354 208.568 655.528 208.64 655.72C213.91 667.34 223.72 682.81 229.02 680.81C233.24 679.22 230.86 672.26 230.84 672.19C230.725 671.841 230.741 671.462 230.887 671.124C231.032 670.787 231.297 670.515 231.63 670.359C231.963 670.204 232.341 670.176 232.693 670.281C233.046 670.387 233.347 670.617 233.54 670.93C233.63 671.07 242.12 685.45 247.19 689.35C248.041 690.048 249.034 690.55 250.1 690.821C251.167 691.092 252.279 691.126 253.36 690.92C254.161 690.733 254.91 690.366 255.547 689.846C256.185 689.326 256.696 688.667 257.04 687.92C258.19 685.54 257.12 681.06 256.61 679.53C256.501 679.197 256.511 678.836 256.638 678.509C256.766 678.183 257.004 677.911 257.31 677.74C257.618 677.57 257.975 677.515 258.32 677.584C258.664 677.654 258.973 677.844 259.19 678.12C259.26 678.2 265.88 686.28 272.85 687.42C273.965 687.652 275.119 687.599 276.208 687.267C277.297 686.935 278.285 686.334 279.08 685.52C279.8 684.681 280.297 683.674 280.524 682.592C280.751 681.51 280.702 680.388 280.38 679.33C279.15 674.52 271.32 666.75 268.38 664.16C268.233 664.029 268.113 663.87 268.028 663.692C267.942 663.514 267.892 663.322 267.881 663.125C267.87 662.928 267.898 662.731 267.963 662.545C268.028 662.359 268.129 662.187 268.26 662.04C268.391 661.893 268.55 661.773 268.728 661.687C268.906 661.602 269.098 661.552 269.295 661.541C269.492 661.53 269.689 661.558 269.875 661.623C270.061 661.688 270.233 661.789 270.38 661.92C270.83 662.33 281.55 671.92 283.26 678.58C283.717 680.127 283.773 681.764 283.424 683.339C283.074 684.913 282.329 686.373 281.26 687.58C280.133 688.766 278.723 689.647 277.164 690.142C275.604 690.637 273.945 690.729 272.34 690.41C267.68 689.66 263.34 686.47 260.47 683.83C260.686 685.675 260.424 687.545 259.71 689.26C259.175 690.414 258.385 691.432 257.4 692.235C256.414 693.039 255.258 693.609 254.02 693.9C253.335 694.031 252.637 694.082 251.94 694.05Z" fill="black"/>
    <path id="Vector_43" d="M258 680.5C257.738 680.499 257.481 680.43 257.254 680.298C257.028 680.166 256.84 679.977 256.71 679.75L251.2 670.27C251.013 669.932 250.965 669.534 251.066 669.161C251.166 668.788 251.408 668.468 251.74 668.27C252.084 668.073 252.492 668.019 252.876 668.12C253.259 668.221 253.588 668.469 253.79 668.81L259.3 678.29C259.484 678.63 259.529 679.028 259.427 679.4C259.324 679.773 259.082 680.092 258.75 680.29C258.524 680.428 258.265 680.5 258 680.5Z" fill="black"/>
    <path id="Vector_44" d="M276.32 688.43C276.258 688.468 276.209 688.524 276.18 688.59C276.15 688.656 276.142 688.73 276.154 688.801C276.167 688.872 276.202 688.938 276.253 688.99C276.304 689.041 276.369 689.076 276.44 689.09C277.435 689.131 278.375 689.558 279.06 690.28C279.9 691.28 280.15 693.14 279.97 694.95C279.963 695.016 279.975 695.082 280.006 695.14C280.036 695.199 280.084 695.247 280.142 695.278C280.2 695.309 280.266 695.322 280.332 695.315C280.397 695.309 280.459 695.282 280.51 695.24C281.627 694.276 282.512 693.073 283.1 691.72C284.1 689.18 284.26 685.5 282.17 682.86C282.135 682.818 282.089 682.785 282.038 682.765C281.986 682.745 281.931 682.738 281.876 682.745C281.821 682.752 281.769 682.773 281.724 682.805C281.68 682.837 281.644 682.88 281.62 682.93C281.021 684.204 280.284 685.408 279.42 686.52C278.453 687.259 277.415 687.899 276.32 688.43Z" fill="black"/>
    <path id="Vector_45" d="M252.49 692.66C252.428 692.677 252.374 692.713 252.335 692.764C252.296 692.814 252.275 692.876 252.275 692.94C252.275 693.004 252.296 693.066 252.335 693.116C252.374 693.167 252.428 693.203 252.49 693.22C253.325 693.361 254.072 693.825 254.57 694.51C255.161 695.76 255.271 697.184 254.88 698.51C254.868 698.564 254.872 698.62 254.891 698.671C254.911 698.723 254.945 698.767 254.99 698.799C255.035 698.831 255.088 698.85 255.143 698.851C255.199 698.853 255.253 698.839 255.3 698.81C256.332 698.123 257.193 697.21 257.82 696.14C258.473 694.994 258.824 693.701 258.839 692.382C258.855 691.063 258.535 689.761 257.91 688.6C257.884 688.563 257.85 688.533 257.81 688.512C257.77 688.491 257.725 688.48 257.68 688.48C257.635 688.48 257.59 688.491 257.55 688.512C257.51 688.533 257.476 688.563 257.45 688.6C256.821 689.607 256.079 690.54 255.24 691.38C254.368 691.897 253.447 692.326 252.49 692.66Z" fill="black"/>
    <path id="Vector_46" d="M227.3 683.21C227.253 683.233 227.214 683.27 227.189 683.316C227.164 683.362 227.155 683.415 227.161 683.467C227.168 683.518 227.191 683.567 227.226 683.605C227.262 683.644 227.309 683.67 227.36 683.68C228.07 683.741 228.727 684.078 229.19 684.62C229.768 685.639 229.949 686.835 229.7 687.98C229.693 688.027 229.699 688.075 229.719 688.118C229.74 688.162 229.772 688.198 229.813 688.222C229.854 688.247 229.901 688.259 229.948 688.257C229.996 688.255 230.042 688.238 230.08 688.21C230.899 687.556 231.565 686.73 232.03 685.79C232.504 684.784 232.716 683.674 232.646 682.564C232.576 681.453 232.226 680.379 231.63 679.44C231.609 679.407 231.581 679.38 231.546 679.361C231.512 679.342 231.474 679.332 231.435 679.332C231.396 679.332 231.358 679.342 231.324 679.361C231.289 679.38 231.261 679.407 231.24 679.44C230.774 680.327 230.211 681.158 229.56 681.92C228.854 682.428 228.096 682.86 227.3 683.21Z" fill="black"/>
    </g>
    <g id="HandFlag">
        <path id="Vector_47" d="M294.31 331.56C294.31 331.56 332 334 353.08 292.85L368.37 257.44C368.37 257.44 384.81 221.61 416.85 211.93L446.93 241.56L438.23 286.38L431 316.93C427.82 325.24 422.633 332.634 415.901 338.453C409.17 344.272 401.103 348.335 392.42 350.28L363.71 354.73C363.71 354.73 328.88 354.16 330.26 388.28C330.26 388.28 317.43 358.42 289.35 336.91L294.31 331.56Z" fill="#725514"/>
        <path id="Vector_48" d="M380.06 303.18C380.34 301.77 401.6 229.63 417.31 212.28C428.24 200.2 444.72 203.83 449.7 212.28C457.95 226.19 439.08 249.96 431.39 259.47C416 278.52 380.06 303.18 380.06 303.18Z" fill="#8E681C"/>
        <path id="Vector_49" d="M445.38 239.58C445.38 239.58 460.81 253.85 447.38 277.1C437.49 294.2 387.66 317.28 387.66 317.28L404.89 284.53" fill="#8E681C"/>
        <path id="Vector_50" d="M438.68 286.72C438.68 286.72 443.26 296.96 435.98 309.88C430.41 319.74 415.51 329.99 405.7 333.66C399.48 336 378 340.58 378 340.58L397.25 312.58" fill="#8E681C"/>
        <path id="Vector_51" d="M444.92 239.24C444.92 239.24 425.28 271.33 403.29 285.09L389.54 313.65C389.54 313.65 405.16 291.41 411.45 286.38C423.35 276.87 459.4 253.85 444.92 239.24Z" fill="#4F3810"/>
        <path id="Vector_52" d="M438.68 286.72L439.68 294.2C439.68 294.2 428.94 306.26 408.41 315.09C402.207 317.772 396.857 322.102 392.94 327.61L385.11 338.61L378.06 339.61L396.85 312.24C396.85 312.24 432.32 293.06 438.68 286.72Z" fill="#4F3810"/>
        <path id="Vector_53" d="M445.75 208.05C445.75 208.05 402.46 222.05 392.09 293.79L380.09 303.18L387.21 280.31L402.65 235.38C402.65 235.38 417.87 191.39 445.75 208.05Z" fill="#4F3810"/>
        <path id="Vector_54" d="M403.87 339.57C403.87 339.57 395.68 344.78 370.11 346.4C355.21 347.4 339.04 348.78 329.11 368.28C328.941 368.623 328.683 368.915 328.363 369.125C328.043 369.335 327.673 369.456 327.291 369.476C326.909 369.495 326.528 369.412 326.189 369.235C325.849 369.059 325.563 368.794 325.36 368.47C314.59 351.03 296.02 331.58 296.02 331.58L289.81 336.91C289.81 336.91 320.06 363.86 329.11 386.17C329.11 386.17 331.19 356.17 357.74 355.02L384.74 351.66L403.86 346.31L403.87 339.57Z" fill="#4F3810"/>
        <path id="Vector_55" d="M298.31 333.3C296.892 333.32 295.475 333.233 294.07 333.04C293.873 333.009 293.684 332.94 293.514 332.836C293.344 332.732 293.196 332.596 293.078 332.435C292.841 332.109 292.743 331.703 292.805 331.305C292.867 330.907 293.085 330.55 293.41 330.313C293.736 330.076 294.142 329.978 294.54 330.04C294.65 330.04 305.31 331.65 318.54 325.7C330.78 320.18 347.8 306.88 359.4 274.82C369.2 247.73 382.19 226.67 413.71 211.91C414.064 211.773 414.457 211.775 414.81 211.917C415.162 212.059 415.448 212.329 415.609 212.672C415.771 213.016 415.795 213.409 415.678 213.77C415.562 214.132 415.312 214.435 414.98 214.62C384.28 229 372 248.74 362.21 275.88C350.21 309.04 332.4 322.83 319.58 328.55C312.899 331.601 305.654 333.22 298.31 333.3Z" fill="black"/>
        <path id="Vector_56" d="M330.25 389.85C329.872 389.848 329.509 389.705 329.233 389.447C328.956 389.189 328.788 388.837 328.76 388.46C328.76 388.23 327.24 365.02 346.89 357.01C352.47 354.73 362.54 353.33 373.21 351.84C384.21 350.3 395.61 348.71 401.21 346.16C424.62 335.39 430.13 314.81 430.21 314.61C430.258 314.419 430.343 314.239 430.46 314.081C430.578 313.923 430.725 313.789 430.894 313.688C431.063 313.587 431.25 313.52 431.445 313.491C431.64 313.462 431.839 313.472 432.03 313.52C432.221 313.568 432.401 313.653 432.559 313.77C432.717 313.888 432.851 314.035 432.952 314.204C433.053 314.373 433.12 314.561 433.149 314.755C433.178 314.95 433.168 315.149 433.12 315.34C432.89 316.24 427.26 337.49 402.49 348.88C396.49 351.61 384.93 353.24 373.7 354.8C363.7 356.2 353.33 357.65 348.1 359.8C330.49 366.98 331.77 387.39 331.83 388.26C331.858 388.655 331.728 389.045 331.469 389.344C331.211 389.644 330.845 389.829 330.45 389.86L330.25 389.85Z" fill="black"/>
        <path id="Vector_57" d="M379.6 304.33C379.304 304.332 379.015 304.245 378.77 304.08C378.523 303.915 378.33 303.681 378.216 303.407C378.102 303.133 378.072 302.831 378.13 302.54C378.26 301.9 399.44 228.94 415.74 210.93C418.233 208.068 421.369 205.838 424.891 204.423C428.413 203.008 432.22 202.448 436 202.79C442.29 203.42 447.85 206.62 450.52 211.13C459.45 226.18 439.57 250.77 432.09 260.03C416.69 279.03 381.91 303.03 380.44 304.03C380.196 304.211 379.903 304.315 379.6 304.33ZM433.69 205.67C430.706 205.687 427.761 206.345 425.054 207.599C422.347 208.853 419.942 210.675 418 212.94C404.81 227.51 386.9 283.41 382.23 299.18C391.55 292.52 417.47 273.4 429.81 258.18C436.25 250.18 455.86 225.96 448 212.7C445.8 208.99 441.11 206.35 435.75 205.81C435.066 205.728 434.379 205.681 433.69 205.67Z" fill="black"/>
        <path id="Vector_58" d="M387.18 318.43C386.921 318.431 386.667 318.364 386.441 318.237C386.216 318.11 386.027 317.927 385.893 317.706C385.759 317.485 385.685 317.232 385.677 316.974C385.67 316.715 385.729 316.459 385.85 316.23L403.09 283.49C403.18 283.317 403.303 283.164 403.452 283.038C403.601 282.913 403.774 282.818 403.959 282.76C404.145 282.701 404.341 282.68 404.535 282.697C404.729 282.714 404.918 282.77 405.09 282.86C405.436 283.045 405.695 283.358 405.813 283.732C405.93 284.105 405.897 284.51 405.72 284.86L390.6 313.6C402.6 307.7 437.68 289.66 445.6 275.99C458.25 254.1 444.49 240.87 443.9 240.31C443.734 240.185 443.595 240.027 443.493 239.846C443.392 239.665 443.329 239.464 443.31 239.257C443.29 239.05 443.314 238.841 443.38 238.644C443.446 238.447 443.552 238.266 443.693 238.112C443.833 237.959 444.004 237.836 444.194 237.753C444.384 237.669 444.59 237.626 444.798 237.627C445.006 237.628 445.211 237.672 445.401 237.757C445.591 237.842 445.761 237.965 445.9 238.12C446.06 238.27 462.05 253.47 448.16 277.49C438.16 294.8 389.82 317.32 387.77 318.27C387.586 318.362 387.385 318.416 387.18 318.43Z" fill="black"/>
        <path id="Vector_59" d="M377.57 341.74C377.324 341.738 377.083 341.677 376.866 341.56C376.65 341.443 376.466 341.275 376.33 341.07C376.16 340.823 376.069 340.53 376.069 340.23C376.069 339.93 376.16 339.637 376.33 339.39L395.58 311.39C395.684 311.213 395.824 311.059 395.99 310.937C396.156 310.816 396.346 310.73 396.546 310.686C396.747 310.641 396.955 310.638 397.157 310.676C397.359 310.715 397.551 310.795 397.721 310.911C397.89 311.028 398.035 311.177 398.144 311.352C398.253 311.526 398.326 311.721 398.357 311.924C398.388 312.128 398.376 312.335 398.324 312.534C398.271 312.733 398.178 312.919 398.05 313.08L381 338C387.39 336.58 400.27 333.63 404.77 332C414.84 328.23 429.1 318 434.27 308.88C441.06 296.88 437.08 287.47 436.91 287.08C436.811 286.898 436.75 286.698 436.732 286.492C436.713 286.285 436.738 286.077 436.804 285.881C436.87 285.685 436.976 285.504 437.116 285.351C437.255 285.197 437.425 285.074 437.614 284.99C437.803 284.905 438.007 284.861 438.215 284.859C438.422 284.858 438.627 284.899 438.817 284.981C439.008 285.063 439.179 285.183 439.321 285.334C439.462 285.486 439.571 285.665 439.64 285.86C439.84 286.3 444.44 296.94 436.87 310.36C431.21 320.36 416.34 330.87 405.82 334.81C399.57 337.15 378.82 341.6 377.93 341.81C377.807 341.807 377.685 341.783 377.57 341.74Z" fill="black"/>
        </g>
<g id="Body">
<path id="Vector_9" d="M73.9999 607.23C103.93 631.581 141.346 644.858 179.93 644.82C273.49 644.82 349.34 568.14 349.34 473.56C349.34 419.56 327.94 367.56 289.34 336.21C298.07 326.56 301.56 318.77 306.45 305.53L289.88 299.35L283.42 285.66L316.53 262.28C316.53 262.28 330 151.67 212.16 117.64C212.16 117.64 160.71 105.8 117.73 133.16L73.9499 127.16L85.9499 148.45L52.9999 145.94L74.4799 177.94C74.4799 177.94 33.4399 262.28 89.8399 322C89.8399 322 49.3199 343.35 34.1599 388C34.1599 388 2.84991 418.52 1.58991 495.43C1.58991 495.43 -3.29009 570.03 49.5899 600.63L73.9999 607.23Z" fill="#FBBB10"/>
<path id="Vector_10" d="M323.62 376.24C323.62 376.24 268.22 405.84 298.95 528.58C298.95 528.58 312.95 564.43 320.73 570.26C320.73 570.26 352.48 533.42 349.8 462.31C349.8 462.31 347.28 412.52 323.62 376.24Z" fill="#FFD685"/>
<path id="Vector_11" d="M346.58 437.24C335.147 439.275 324.218 443.51 314.4 449.71C314.4 449.71 314.69 467.4 324.51 479.18L325.2 461.18C325.2 461.18 328.55 453.31 348.68 451.18" fill="#430E6B"/>
<path id="Vector_12" d="M340.57 530.7C331.848 518.939 326.975 504.768 326.62 490.13C345.55 486.89 349.96 477.21 349.96 477.21L348.52 495.63L337.46 502.94L339.46 510.99L344.46 517.07" fill="#430E6B"/>
<path id="Vector_13" d="M34.1601 390.19C33.9715 390.187 33.7851 390.15 33.6101 390.08C33.2416 389.931 32.9467 389.643 32.7895 389.278C32.6322 388.913 32.6252 388.5 32.7701 388.13C49.0001 347.48 80.0501 326.81 87.5001 322.31L83.9701 318.31C68.0801 300.19 60.7701 276.4 59.3301 261.53C57.0401 237.76 59.5601 203.15 73.5001 177.3C73.6864 176.956 74.0014 176.7 74.3762 176.587C74.751 176.475 75.1551 176.515 75.5001 176.7C75.842 176.888 76.0971 177.203 76.211 177.576C76.3249 177.95 76.2887 178.353 76.1101 178.7C62.5101 204 60.0701 237.92 62.3201 261.25C63.7101 275.68 70.8001 298.76 86.2201 316.34L91.0001 321.7C91.1491 321.87 91.2579 322.072 91.3185 322.29C91.3791 322.508 91.3899 322.737 91.3501 322.96C91.3117 323.183 91.2222 323.393 91.0886 323.576C90.955 323.758 90.7809 323.907 90.5801 324.01C90.2101 324.21 53.5801 344.14 35.5801 389.24C35.4694 389.525 35.2738 389.769 35.0197 389.939C34.7657 390.109 34.4656 390.196 34.1601 390.19Z" fill="black"/>
<path id="Vector_14" d="M315.91 264.48C315.514 264.48 315.134 264.323 314.853 264.044C314.572 263.765 314.413 263.386 314.41 262.99C314.41 229.81 294.95 200.71 261.02 183.16H260.96L260.86 183.11C223.86 162.39 79.2599 150.25 56.0399 148.42L76.0399 177.21C76.1888 177.415 76.2787 177.657 76.2999 177.91L79.5399 208.78C79.5607 208.975 79.5427 209.172 79.487 209.36C79.4314 209.549 79.3391 209.724 79.2155 209.876C79.092 210.029 78.9395 210.155 78.7669 210.248C78.5944 210.342 78.4051 210.4 78.2099 210.42C77.8148 210.462 77.4191 210.346 77.1098 210.096C76.8005 209.847 76.6027 209.485 76.5599 209.09L73.3599 178.6L51.7799 147.5C51.6189 147.267 51.527 146.994 51.5146 146.712C51.5023 146.429 51.5701 146.149 51.7101 145.903C51.8502 145.657 52.0569 145.456 52.3063 145.323C52.5558 145.19 52.8378 145.13 53.1199 145.15C59.9899 145.65 221.82 157.7 262.35 180.47H262.41C297.35 198.55 317.41 228.61 317.41 262.94C317.415 263.14 317.38 263.34 317.307 263.526C317.234 263.713 317.125 263.883 316.985 264.027C316.845 264.17 316.678 264.284 316.493 264.362C316.309 264.44 316.11 264.48 315.91 264.48Z" fill="black"/>
<path id="Vector_15" d="M320.73 571.76C320.504 571.76 320.281 571.71 320.077 571.613C319.873 571.516 319.693 571.375 319.55 571.2C309.807 558.006 302.338 543.276 297.45 527.62C282.9 480.31 288.32 442.11 292.85 423.55C301.85 386.55 322.06 375.37 322.92 374.92C323.267 374.764 323.66 374.746 324.019 374.869C324.379 374.992 324.678 375.247 324.857 375.582C325.036 375.917 325.082 376.308 324.984 376.675C324.886 377.042 324.652 377.358 324.33 377.56C324 377.74 304.42 388.76 295.76 424.26C291.3 442.52 285.97 480.12 300.32 526.74C305.086 542.041 312.38 556.437 321.9 569.33C322.023 569.483 322.114 569.66 322.168 569.848C322.223 570.037 322.239 570.235 322.217 570.43C322.194 570.625 322.134 570.814 322.038 570.986C321.943 571.157 321.814 571.308 321.66 571.43C321.396 571.641 321.068 571.757 320.73 571.76Z" fill="black"/>
<path id="Vector_16" d="M324.35 480.68C324.131 480.68 323.914 480.631 323.715 480.538C323.516 480.444 323.341 480.309 323.2 480.14C313.15 468.09 312.75 450.48 312.74 449.74C312.734 449.484 312.795 449.23 312.916 449.004C313.037 448.779 313.214 448.588 313.43 448.45C323.422 442.111 334.564 437.799 346.22 435.76C346.618 435.706 347.021 435.812 347.341 436.054C347.661 436.297 347.871 436.657 347.925 437.055C347.979 437.453 347.874 437.856 347.631 438.176C347.388 438.495 347.028 438.706 346.63 438.76C335.699 440.738 325.233 444.74 315.77 450.56C315.96 453.73 317.04 465.4 323.02 474.84L323.55 461.2C323.551 461.018 323.588 460.838 323.66 460.67C323.81 460.31 327.59 451.96 348.36 449.78C348.758 449.738 349.156 449.855 349.468 450.106C349.779 450.358 349.978 450.722 350.02 451.12C350.063 451.518 349.945 451.916 349.694 452.228C349.443 452.539 349.078 452.738 348.68 452.78C331.68 454.56 327.25 460.51 326.53 461.68L325.85 479.3C325.838 479.6 325.736 479.89 325.558 480.133C325.38 480.375 325.133 480.559 324.85 480.66C324.686 480.694 324.517 480.7 324.35 480.68Z" fill="black"/>
<path id="Vector_17" d="M340.41 532.2C340.177 532.199 339.948 532.144 339.74 532.04C339.532 531.936 339.351 531.785 339.21 531.6C330.268 519.576 325.301 505.061 325 490.08C325.011 489.734 325.142 489.403 325.37 489.142C325.598 488.881 325.909 488.708 326.25 488.65C344.03 485.65 348.44 476.65 348.48 476.58C348.649 476.219 348.955 475.939 349.329 475.803C349.704 475.666 350.118 475.683 350.48 475.85C350.661 475.932 350.823 476.049 350.958 476.194C351.093 476.34 351.197 476.51 351.265 476.697C351.333 476.883 351.363 477.081 351.354 477.279C351.344 477.477 351.295 477.671 351.21 477.85C351.03 478.27 346.46 487.85 328.02 491.39C328.699 505.261 333.443 518.625 341.66 529.82C341.778 529.978 341.864 530.157 341.913 530.348C341.962 530.539 341.973 530.737 341.945 530.932C341.917 531.127 341.851 531.315 341.751 531.484C341.65 531.654 341.518 531.802 341.36 531.92C341.083 532.117 340.749 532.215 340.41 532.2Z" fill="black"/>
<path id="Vector_18" d="M344.32 519.23C344.01 519.229 343.707 519.135 343.45 518.96C338.52 515.47 335.94 504.33 335.66 503.07C335.577 502.705 335.633 502.322 335.818 501.996C336.003 501.67 336.304 501.426 336.66 501.31C341.55 499.89 347.43 493.9 347.49 493.84C347.623 493.682 347.787 493.552 347.972 493.46C348.157 493.368 348.359 493.315 348.565 493.305C348.771 493.295 348.978 493.327 349.171 493.4C349.364 493.473 349.54 493.586 349.688 493.73C349.836 493.874 349.952 494.048 350.03 494.239C350.108 494.431 350.145 494.636 350.139 494.843C350.134 495.049 350.086 495.252 349.998 495.44C349.911 495.627 349.785 495.794 349.63 495.93C349.39 496.18 344.09 501.58 338.85 503.71C339.85 507.45 342.15 514.4 345.13 516.51C345.388 516.694 345.58 516.955 345.68 517.256C345.781 517.556 345.783 517.88 345.688 518.182C345.592 518.484 345.404 518.748 345.149 518.936C344.894 519.125 344.587 519.227 344.27 519.23H344.32Z" fill="black"/>
<path id="Vector_19" d="M297.91 305.14C288.698 316.259 276.826 324.87 263.396 330.172C249.965 335.475 235.413 337.297 221.09 335.47C174.36 329.64 141.09 287.47 146.88 241.36C146.88 241.36 133.82 271.53 160.29 308.88C182.17 339.76 231.22 351.27 264.63 336.06C291.35 323.9 297.91 305.14 297.91 305.14Z" fill="#D89A0F"/>
<path id="Vector_20" d="M166.43 369.83C166.43 369.83 187.78 377.83 220.29 373.11C210.554 378.905 199.593 382.331 188.29 383.11L166.43 369.83Z" fill="#D89A0F"/>
<path id="Vector_21" d="M201.14 376.68C188.018 376.567 174.998 374.363 162.57 370.15C162.2 370.01 161.899 369.731 161.732 369.372C161.566 369.013 161.547 368.603 161.68 368.23C161.747 368.045 161.85 367.875 161.983 367.73C162.116 367.585 162.276 367.468 162.454 367.385C162.633 367.302 162.826 367.256 163.023 367.248C163.219 367.24 163.416 367.271 163.6 367.34C163.89 367.44 192.96 377.91 219.95 371.65C220.331 371.575 220.727 371.651 221.053 371.863C221.38 372.074 221.611 372.403 221.699 372.782C221.787 373.16 221.725 373.558 221.526 373.892C221.326 374.225 221.005 374.469 220.63 374.57C214.234 376.009 207.696 376.717 201.14 376.68Z" fill="black"/>
<path id="Vector_22" d="M317.59 574.76C317.59 574.76 261.12 642.11 161.27 634C146.69 632.82 103.88 619.35 93.37 607.86L86.57 605.51L74 607.23C74 607.23 125.76 658.67 215.34 642.11C215.29 642.11 280.2 629.51 317.59 574.76Z" fill="#D89A0F"/>
<path id="Vector_23" d="M180.42 647C141.479 647.137 103.7 633.736 73.55 609.09C73.3815 608.972 73.2392 608.82 73.1319 608.644C73.0246 608.468 72.9547 608.272 72.9265 608.068C72.8983 607.864 72.9124 607.656 72.968 607.458C73.0235 607.26 73.1193 607.075 73.2494 606.915C73.3795 606.756 73.5411 606.624 73.7241 606.53C73.9071 606.435 74.1076 606.38 74.3131 606.366C74.5186 606.352 74.7248 606.381 74.9186 606.451C75.1125 606.52 75.29 606.629 75.44 606.77C105.063 630.985 142.18 644.153 180.44 644.02C273.02 644.02 348.35 567.87 348.35 474.26C348.35 419.26 326.13 368.34 288.92 338.07C288.765 337.94 288.637 337.78 288.544 337.6C288.451 337.419 288.395 337.222 288.38 337.02C288.364 336.817 288.389 336.613 288.454 336.421C288.52 336.228 288.624 336.051 288.76 335.9C297 326.8 300.47 319.55 305.58 305.71C305.741 305.377 306.019 305.115 306.361 304.974C306.703 304.834 307.085 304.825 307.434 304.949C307.782 305.073 308.073 305.321 308.249 305.646C308.426 305.971 308.476 306.35 308.39 306.71C303.39 320.34 299.86 327.77 292.02 336.71C329.2 367.66 351.34 418.93 351.34 474.23C351.32 569.52 274.66 647 180.42 647Z" fill="black"/>
<path id="Vector_24" d="M119.22 132.27C119.22 132.27 203.9 79.7 282.15 158.71C282.15 158.71 249.15 128.45 208.67 123.77C184.46 120.96 163.79 120.96 127.44 135.06L119.22 132.27Z" fill="#FFCD5C"/>
<path id="Vector_25" d="M315.91 264.48H315.79C315.593 264.465 315.401 264.411 315.226 264.321C315.05 264.231 314.894 264.107 314.766 263.957C314.639 263.806 314.543 263.631 314.483 263.443C314.424 263.255 314.402 263.057 314.42 262.86C314.9 256.98 315 252.46 315 247.07C315 176.37 254.79 116.64 183.53 116.64C160.64 116.492 138.151 122.651 118.53 134.44C118.192 134.614 117.801 134.652 117.436 134.549C117.071 134.446 116.758 134.207 116.562 133.883C116.365 133.558 116.299 133.171 116.376 132.799C116.454 132.427 116.67 132.099 116.98 131.88C137.074 119.802 160.106 113.491 183.55 113.64C218.85 113.64 252.43 127.64 278.1 153C303.77 178.36 318 211.87 318 247.07C318 252.53 317.91 257.12 317.41 263.07C317.39 263.453 317.222 263.813 316.943 264.076C316.663 264.338 316.294 264.483 315.91 264.48Z" fill="black"/>
</g>
<g id="Eyes">
<path id="Vector_26" d="M219 168.87C181.55 173.77 151.84 202.51 147 241.29C141.26 287.44 174.48 329.57 221.21 335.4C235.661 337.197 250.331 335.296 263.846 329.874C277.361 324.452 289.278 315.687 298.48 304.4L289.4 300.13L282.7 286.68L316 262.5C316.246 251.202 313.996 239.989 309.41 229.66C301.8 212.79 283.41 196.08 283.41 196.08L265.34 183.25L247.4 175.74L219 168.87Z" fill="white"/>
<path id="Vector_27" d="M248.8 275.43C269.036 275.43 285.44 259.227 285.44 239.24C285.44 219.253 269.036 203.05 248.8 203.05C228.564 203.05 212.16 219.253 212.16 239.24C212.16 259.227 228.564 275.43 248.8 275.43Z" fill="#DAA520"/>
<path id="Vector_28" d="M253.25 264.03C266.262 264.03 276.81 253.612 276.81 240.76C276.81 227.908 266.262 217.49 253.25 217.49C240.238 217.49 229.69 227.908 229.69 240.76C229.69 253.612 240.238 264.03 253.25 264.03Z" fill="#411F0A"/>
<path id="Vector_29" d="M242.84 235.38C248.584 235.38 253.24 230.777 253.24 225.1C253.24 219.423 248.584 214.82 242.84 214.82C237.096 214.82 232.44 219.423 232.44 225.1C232.44 230.777 237.096 235.38 242.84 235.38Z" fill="white"/>
</g>
<g id="Beak">
<path id="Vector_30" d="M283.39 286.36L316.5 263L335.42 299.74C335.42 299.74 305.91 293.91 289.85 300.06L283.39 286.36Z" fill="#725514"/>
<path id="Vector_31" d="M333.29 300.11C333.29 300.11 314.29 314.3 289.85 300.05C289.85 300.05 317.61 293.5 333.29 300.11Z" fill="#49340E"/>
<path id="Vector_32" d="M289.85 301.55C289.569 301.549 289.294 301.47 289.055 301.322C288.817 301.174 288.625 300.962 288.5 300.71L282.05 287.54C281.895 287.226 281.855 286.868 281.937 286.528C282.019 286.188 282.218 285.888 282.5 285.68L315 261.78C315.17 261.653 315.365 261.565 315.572 261.52C315.779 261.475 315.993 261.475 316.2 261.52C316.408 261.562 316.605 261.648 316.778 261.772C316.95 261.896 317.094 262.056 317.2 262.24C317.33 262.47 330.51 285.49 336.92 299.42C337.036 299.671 337.08 299.949 337.047 300.223C337.015 300.497 336.908 300.757 336.737 300.975C336.566 301.192 336.339 301.358 336.08 301.454C335.821 301.55 335.541 301.573 335.27 301.52C334.96 301.46 304.41 295.52 290.43 301.43C290.246 301.507 290.049 301.547 289.85 301.55ZM285.29 287.35L290.59 298.15C303.21 293.63 325.1 296.72 332.97 298.05C327.34 286.32 318.22 270.05 315.44 265.19L285.29 287.35Z" fill="black"/>
<path id="Vector_33" d="M312.07 307.39C304.051 307.321 296.174 305.259 289.15 301.39C288.817 301.195 288.572 300.878 288.466 300.507C288.36 300.135 288.402 299.737 288.582 299.395C288.763 299.054 289.068 298.795 289.435 298.673C289.801 298.551 290.201 298.575 290.55 298.74C314.62 311.55 332.22 299.08 332.96 298.54C333.282 298.321 333.675 298.236 334.059 298.302C334.442 298.369 334.784 298.581 335.014 298.895C335.244 299.209 335.342 299.6 335.289 299.985C335.236 300.37 335.036 300.72 334.73 300.96C327.955 305.244 320.085 307.477 312.07 307.39Z" fill="black"/>
</g>
<g id="Tail">
<path id="Vector_34" d="M105.71 745.57C97.09 780.19 74.49 819.66 74.49 819.66C112.1 856.66 154.17 843.19 154.17 843.19C218.64 766.8 201.87 644.19 201.87 644.19C192.575 645.708 183.138 646.164 173.74 645.55C164.833 645.121 155.975 643.981 147.25 642.14" fill="#725514"/>
<path id="Vector_35" d="M119.2 634C119.2 634 115.93 684.91 85.1101 736C85.1101 736 95.2101 747.79 132.8 748.89C132.8 748.89 149.61 723.62 151.27 675.89L153.54 642.52C153.54 642.52 135.63 642.54 119.2 634Z" fill="#725514"/>
<path id="Vector_36" d="M151.27 675.9C151.27 675.9 163.37 708.18 139.16 762.37C129.989 763.254 120.735 762.578 111.79 760.37C109.333 771.023 106.248 781.522 102.55 791.81C96.67 808.09 85.11 828.71 85.11 828.71L74.49 819.61C74.49 819.61 100.22 772.77 105.71 745.52C105.71 745.52 122.11 750.24 132.8 748.84C132.8 748.89 151.54 713.5 151.27 675.9Z" fill="#4F3810"/>
<path id="Vector_37" d="M135.39 847C119.3 847 95.4999 842.44 73.4399 820.72C73.2062 820.487 73.0552 820.184 73.0101 819.857C72.9649 819.53 73.0281 819.198 73.1899 818.91C73.4199 818.52 95.7799 779.22 104.26 745.2C104.357 744.814 104.603 744.482 104.944 744.278C105.285 744.074 105.694 744.013 106.08 744.11C106.466 744.207 106.797 744.453 107.002 744.794C107.206 745.136 107.267 745.544 107.17 745.93C99.3499 777.28 79.9399 812.93 76.3599 819.39C110.72 852.47 149 843.08 153.36 841.88C186.17 802.78 197.24 751.3 200.75 714.96C204.56 675.37 200.48 644.67 200.43 644.36C200.377 643.962 200.484 643.56 200.728 643.241C200.972 642.922 201.332 642.713 201.73 642.66C202.128 642.607 202.53 642.714 202.849 642.958C203.168 643.202 203.377 643.562 203.43 643.96C203.43 644.27 207.6 675.25 203.76 715.17C200.22 752.07 188.94 804.4 155.39 844.17C155.206 844.383 154.967 844.542 154.7 844.63C148.402 846.302 141.905 847.1 135.39 847Z" fill="black"/>
<path id="Vector_38" d="M132.8 750.39H132.75C94.9401 749.28 84.4001 737.48 84.0001 737C83.7957 736.76 83.6713 736.463 83.6444 736.149C83.6175 735.835 83.6894 735.521 83.8501 735.25C114.12 685.07 117.7 634.42 117.73 633.91C117.743 633.713 117.795 633.521 117.882 633.344C117.97 633.167 118.092 633.009 118.24 632.879C118.389 632.749 118.561 632.649 118.748 632.586C118.935 632.523 119.133 632.497 119.33 632.51C119.527 632.523 119.72 632.575 119.896 632.662C120.073 632.75 120.231 632.871 120.361 633.02C120.491 633.169 120.591 633.341 120.654 633.528C120.717 633.715 120.743 633.913 120.73 634.11C120.73 634.62 117.14 685.27 87.0501 735.76C89.9701 738.23 101.8 746.35 132.05 747.38C134.67 743.02 148.37 718.27 149.84 675.86C149.845 675.663 149.89 675.469 149.971 675.289C150.052 675.11 150.168 674.948 150.312 674.814C150.457 674.68 150.626 674.576 150.811 674.508C150.996 674.441 151.193 674.411 151.39 674.42C151.786 674.436 152.16 674.607 152.43 674.898C152.7 675.188 152.844 675.574 152.83 675.97C151.18 723.57 134.83 748.69 134.11 749.74C133.966 749.952 133.77 750.123 133.54 750.237C133.311 750.351 133.056 750.403 132.8 750.39Z" fill="black"/>
</g>
<g id="Badge">
<path id="Vector_60" d="M403.87 333.71V392.14C403.87 392.527 404.024 392.899 404.298 393.172C404.572 393.446 404.943 393.6 405.33 393.6H418.83C419.217 393.597 419.586 393.443 419.86 393.169C420.133 392.896 420.288 392.526 420.29 392.14L420.7 324.68C420.7 324.68 412.39 328 410 331.24C408 333.82 403.87 333.71 403.87 333.71Z" fill="black"/>
<g id="Flag">
<path id="Vector_61" d="M419.71 19.08C419.71 19.08 447.2 -1.26998 491.35 1.81002C531.93 4.65002 551.56 26.51 575.5 29.6C586.587 31.0638 597.854 30.2991 608.642 27.3507C619.429 24.4023 629.519 19.3295 638.32 12.43C638.517 12.2713 638.756 12.1717 639.007 12.1428C639.259 12.1139 639.513 12.1569 639.741 12.2668C639.97 12.3767 640.162 12.549 640.296 12.7637C640.43 12.9784 640.501 13.2268 640.5 13.48V144.48C640.502 145.566 640.193 146.63 639.61 147.546C639.027 148.462 638.195 149.192 637.21 149.65C628.32 153.77 602.84 164.46 577.78 164.46C542.6 164.46 518.91 138.82 474.96 139.23C441.39 139.54 419.71 164.46 419.71 164.46V19.08Z" fill="white"/>
<path id="Vector_62" d="M418.22 168.48V18.33L418.82 17.88C419.1 17.67 447.25 -2.77002 491.45 0.319976C515.45 1.99998 532.05 10.17 546.71 17.38C557.05 22.46 565.98 26.86 575.71 28.11C586.595 29.5217 597.653 28.7602 608.242 25.8696C618.831 22.979 628.742 18.0167 637.4 11.27C637.817 10.9404 638.319 10.7346 638.848 10.6761C639.376 10.6176 639.911 10.7086 640.39 10.9389C640.869 11.1692 641.274 11.5295 641.559 11.9788C641.844 12.428 641.996 12.9482 642 13.48V144.48C642.001 145.852 641.609 147.195 640.872 148.352C640.135 149.509 639.083 150.431 637.84 151.01C628.14 155.51 602.84 165.95 577.78 165.95C560.98 165.95 546.9 160.27 531.99 154.25C515.28 147.5 497.99 140.48 474.99 140.73C442.52 141.03 421.07 165.2 420.86 165.44L418.22 168.48ZM476 137.76C499.08 137.76 516.37 144.76 533.1 151.5C547.73 157.41 561.55 162.99 577.77 162.99C602.27 162.99 627.05 152.73 636.57 148.32C637.294 147.981 637.907 147.443 638.335 146.768C638.764 146.093 638.991 145.31 638.99 144.51V13.81C623.948 25.4385 605.483 31.767 586.47 31.81C582.735 31.8071 579.004 31.5633 575.3 31.08C565.09 29.77 555.96 25.27 545.37 20.08C531 13 514.65 4.93998 491.24 3.30998C451.69 0.539976 425.46 17 421.21 19.86V160.86C428.05 154.32 447.77 138.05 474.94 137.8L476 137.76Z" fill="black"/>
<g id="End">
<path id="Vector_63" d="M601.56 29V74.25C601.56 74.25 628.56 71.58 640.5 59.25V13.38C640.499 13.1369 640.43 12.899 640.3 12.6936C640.17 12.4882 639.984 12.3238 639.765 12.2193C639.545 12.1148 639.301 12.0744 639.059 12.1028C638.818 12.1313 638.589 12.2274 638.4 12.38C627.668 20.8563 615.017 26.5638 601.56 29Z" fill="black"/>
<path id="Vector_64" d="M600.88 115.83C600.88 115.83 629.07 116.7 640.5 106.91V146.48C640.5 146.959 640.361 147.427 640.1 147.828C639.839 148.229 639.468 148.546 639.03 148.74L620.14 157.05L601.56 161.15L600.88 115.83Z" fill="black"/>
</g>
<g id="Init">
<path id="Vector_65" d="M419.71 70.21C419.71 70.21 435.42 55.21 461.35 53.28C461.35 53.28 459.79 27.98 458.51 4.18C458.51 4.18 441.39 3.33 419.71 19.08V70.21Z" fill="black"/>
<path id="Vector_66" d="M461.35 53.28C477.621 46.9779 495.55 46.389 512.2 51.61L512.08 100.54C512.08 100.54 486.18 95.74 461.9 102.61L461.35 53.28Z" fill="black"/>
<path id="Vector_67" d="M461.9 102.61V140.61C461.9 140.61 440.43 142.68 419.71 164.52V122.9C419.71 122.9 436 109 461.9 102.61Z" fill="black"/>
</g>
<g id="Maddit">
<path id="Vector_68" d="M554.14 22.63L554.75 67.85C537.65 55.9 512.2 51.61 512.2 51.61L509.65 4.67999L520.12 6.99999L534.3 12.8" fill="black"/>
<path id="Vector_69" d="M554.75 67.85L556.15 111.71C556.15 111.71 581 120 600.88 115.83L601.56 74.25C593.74 76.4861 585.541 77.0718 577.482 75.9701C569.424 74.8683 561.683 72.1031 554.75 67.85V67.85Z" fill="black"/>
<path id="Vector_70" d="M512.08 100.54V145.21L555.3 161.15L556.15 111.71C556.15 111.71 538.07 102.61 512.08 100.54Z" fill="black"/>
</g>
</g>
<path id="Vector_71" d="M419.71 209.55V9.8C419.71 9.22449 419.481 8.67254 419.074 8.26558C418.668 7.85863 418.116 7.63 417.54 7.63H405.47C404.894 7.63 404.341 7.8583 403.932 8.26497C403.524 8.67164 403.293 9.22357 403.29 9.8V140.88L402.05 233.88" fill="black"/>
<path id="Vector_72" d="M401.06 243.05L401.8 139.56V10C401.797 9.31688 401.93 8.63998 402.191 8.00845C402.451 7.37691 402.834 6.80327 403.318 6.32068C403.801 5.83808 404.376 5.4561 405.008 5.19681C405.64 4.93751 406.317 4.80605 407 4.81002H416.09C417.456 4.82322 418.761 5.37649 419.721 6.34894C420.68 7.3214 421.215 8.63401 421.21 10V209.53L415.7 215.64L412.48 215.46L401.06 243.05ZM407 7.81002C406.71 7.80466 406.422 7.8575 406.153 7.96541C405.883 8.07332 405.639 8.23411 405.433 8.43827C405.226 8.64244 405.064 8.88584 404.953 9.15409C404.843 9.42233 404.787 9.70998 404.79 10V139.57L404.17 227.71L410.53 212.35L414.44 212.57L418.22 208.38V10C418.22 9.4245 417.991 8.87256 417.584 8.4656C417.178 8.05865 416.626 7.83002 416.05 7.83002L407 7.81002Z" fill="black"/>
<path id="Vector_73" d="M418.06 395.1H406.06C405.073 395.097 404.126 394.703 403.429 394.004C402.732 393.305 402.34 392.358 402.34 391.37V333.71C402.34 333.312 402.498 332.931 402.779 332.649C403.061 332.368 403.442 332.21 403.84 332.21C404.238 332.21 404.619 332.368 404.901 332.649C405.182 332.931 405.34 333.312 405.34 333.71V391.37C405.34 391.564 405.417 391.749 405.554 391.886C405.691 392.023 405.876 392.1 406.07 392.1H418.07C418.264 392.1 418.449 392.023 418.586 391.886C418.723 391.749 418.8 391.564 418.8 391.37L419.22 324.67C419.22 324.474 419.259 324.281 419.333 324.1C419.408 323.919 419.518 323.755 419.656 323.616C419.795 323.478 419.959 323.368 420.14 323.293C420.321 323.219 420.514 323.18 420.71 323.18C420.907 323.18 421.103 323.219 421.285 323.295C421.467 323.371 421.632 323.483 421.771 323.623C421.909 323.764 422.019 323.931 422.092 324.114C422.166 324.297 422.203 324.493 422.2 324.69L421.78 391.38C421.777 392.366 421.385 393.31 420.688 394.008C419.991 394.705 419.046 395.097 418.06 395.1Z" fill="black"/>
</g>
<g id="HandRight">
<path id="Vector_74" d="M116.31 343.23L177.36 376.23C177.36 376.23 275.43 426.23 253.25 520.99C253.25 520.99 243.39 580.37 172.15 595.56C172.15 595.56 135.71 627.08 86.57 605.49C86.57 605.49 51.95 615.63 28.51 583.87C28.51 583.87 -3.75003 559.69 2.92997 473.26C2.92997 473.26 7.14997 421.12 35.74 386.16C35.74 386.16 45.65 364.95 50.31 358.92C61.4064 344.771 74.5234 332.332 89.24 322" fill="#725514"/>
<path id="Vector_75" d="M252.3 463.39C252.3 463.39 275.6 532.23 212.16 580C212.16 580 191.25 594.16 170.72 596.75C170.72 596.75 142.72 618.32 118.19 613.29C118.19 613.29 94.19 611.02 89.84 604.63C89.84 604.63 53.6 617.07 27.27 582.8C27.27 582.8 90.98 620.24 141.88 557C141.88 557 131.88 587 101.58 600.11C101.58 600.11 172.84 611.52 201.87 532.98C201.87 532.98 204.78 557.76 182.36 585.09C182.36 585.1 255.42 555.43 252.3 463.39Z" fill="#4F3810"/>
<path id="Vector_76" d="M89.84 322.69C89.84 322.69 49.6 347 35.74 386.17L63.19 363.26C63.19 363.26 67.36 344.31 89.84 322.69Z" fill="#4F3810"/>
<path id="Vector_77" d="M170.72 598.26C170.407 598.259 170.102 598.161 169.848 597.978C169.593 597.795 169.403 597.537 169.302 597.241C169.202 596.944 169.197 596.623 169.288 596.324C169.379 596.024 169.562 595.761 169.81 595.57C179.367 588.188 187.095 578.704 192.395 567.853C197.695 557.002 200.424 545.076 200.37 533C200.37 532.602 200.528 532.221 200.809 531.939C201.091 531.658 201.472 531.5 201.87 531.5C202.268 531.5 202.649 531.658 202.931 531.939C203.212 532.221 203.37 532.602 203.37 533C203.423 544.496 201.045 555.874 196.392 566.387C191.738 576.899 184.915 586.31 176.37 594C224.37 582.38 255.08 543.41 255.08 493.19C255.08 463.75 240.68 432.01 215.57 406.12C199.57 389.63 177.12 377.74 153.35 365.12C130.75 353.12 107.35 340.79 88.86 323.75C88.5982 323.478 88.4497 323.116 88.4445 322.738C88.4393 322.36 88.5777 321.995 88.8318 321.715C89.086 321.436 89.4368 321.263 89.8133 321.233C90.1898 321.202 90.5639 321.315 90.86 321.55C109.11 338.32 132.3 350.6 154.73 362.47C178.73 375.18 201.38 387.17 217.73 404C243.38 430.45 258.09 462.95 258.09 493.16C258.09 546.91 223.92 588.16 171.04 598.16C170.938 598.207 170.831 598.241 170.72 598.26Z" fill="black"/>
<path id="Vector_78" d="M72.7499 608.39C69.3973 608.419 66.0494 608.135 62.7499 607.54C37.1299 602.54 14.0999 576.11 5.44989 541.82C-7.59011 490 3.36989 425.92 31.5299 389.38C40.7661 379.156 51.0944 369.975 62.3299 362C62.6551 361.781 63.053 361.698 63.4385 361.769C63.824 361.84 64.1664 362.059 64.3925 362.379C64.6186 362.7 64.7104 363.095 64.6482 363.482C64.586 363.869 64.3749 364.217 64.0599 364.45C53.0473 372.253 42.9176 381.233 33.8499 391.23C6.24988 427.08 -4.48011 490.11 8.37989 541.08C16.7599 574.28 38.8499 599.8 63.3799 604.6C70.7999 606.05 81.3799 605.32 87.3299 603.79C90.9432 602.859 94.4829 601.663 97.9199 600.21C107.571 596.111 116.309 590.131 123.624 582.617C130.938 575.104 136.682 566.208 140.52 556.45C140.592 556.267 140.7 556.101 140.836 555.96C140.973 555.819 141.136 555.706 141.316 555.628C141.496 555.55 141.69 555.508 141.886 555.505C142.082 555.502 142.277 555.538 142.46 555.61C142.642 555.682 142.809 555.79 142.95 555.926C143.091 556.063 143.204 556.226 143.282 556.406C143.36 556.586 143.401 556.78 143.405 556.976C143.408 557.172 143.372 557.367 143.3 557.55C139.318 567.686 133.354 576.927 125.758 584.731C118.161 592.535 109.085 598.746 99.0599 603C95.4893 604.508 91.8127 605.751 88.0599 606.72C83.04 607.877 77.9011 608.437 72.7499 608.39Z" fill="black"/>
<path id="Vector_79" d="M122.4 614.8C110.122 614.839 98.0039 612.025 86.9999 606.58C86.7238 606.449 86.4955 606.235 86.3467 605.968C86.1979 605.701 86.1361 605.394 86.1699 605.09C86.1991 604.786 86.3213 604.498 86.5199 604.265C86.7185 604.032 86.9838 603.867 87.2799 603.79C90.8932 602.859 94.4329 601.663 97.8699 600.21C98.0531 600.132 98.2499 600.091 98.449 600.089C98.6482 600.086 98.8458 600.124 99.0306 600.198C99.2154 600.272 99.3837 600.382 99.526 600.521C99.6683 600.661 99.7817 600.827 99.8599 601.01C99.938 601.193 99.9793 601.39 99.9814 601.589C99.9835 601.788 99.9463 601.986 99.872 602.171C99.7977 602.356 99.6878 602.524 99.5484 602.666C99.4091 602.808 99.2431 602.922 99.0599 603C96.7699 604 94.3999 604.84 91.9699 605.6C104.656 611.031 118.565 612.968 132.253 611.21C145.941 609.451 158.908 604.062 169.81 595.6C179.371 588.215 187.102 578.726 192.402 567.869C197.701 557.013 200.428 545.081 200.37 533C200.37 532.602 200.528 532.221 200.809 531.939C201.091 531.658 201.472 531.5 201.87 531.5C202.268 531.5 202.649 531.658 202.931 531.939C203.212 532.221 203.37 532.602 203.37 533C203.434 545.545 200.604 557.935 195.101 569.208C189.598 580.482 181.57 590.334 171.64 598C157.57 608.954 140.231 614.87 122.4 614.8Z" fill="black"/>
</g>
<g id="Hear">
<path id="Vector_80" d="M316.27 250.67C316.27 250.67 323.82 214.74 279.77 177.15C279.77 177.15 263.48 151.06 158.01 139.05L71.9099 127.58L85.9099 149.14L184.46 161.68L229.69 169.79C229.69 169.79 302.49 183.6 316.27 250.67Z" fill="#725514"/>
<path id="Vector_81" d="M78.3401 137.38C78.3401 137.38 150.34 146.65 178.59 151.46C219.68 158.46 302.59 170.63 315.89 241.92L316.27 250.67L309 227.89C309 227.89 291.58 182.43 218.93 167.31L136.47 154.94L85.4701 149.44L78.3401 137.38Z" fill="#4F3810"/>
<path id="Vector_82" d="M315.89 236.17C315.542 236.167 315.206 236.044 314.938 235.822C314.67 235.6 314.487 235.292 314.42 234.95C308.11 202.34 281.27 177.77 266.42 168.39C252.04 159.32 236.59 155.65 226.42 153.21L225.05 152.89C199.33 146.74 188.73 144.66 74.9301 129.49L86.8201 148.65C87.0244 148.988 87.0871 149.393 86.9947 149.777C86.9023 150.161 86.6621 150.493 86.3264 150.701C85.9907 150.909 85.5865 150.976 85.2015 150.888C84.8165 150.8 84.4818 150.563 84.2701 150.23L70.6401 128.37C70.4884 128.129 70.4087 127.851 70.4104 127.566C70.4121 127.282 70.4952 127.004 70.6497 126.765C70.8043 126.527 71.0239 126.337 71.2827 126.219C71.5415 126.101 71.8286 126.06 72.1101 126.1C189 141.67 199.6 143.74 225.68 150L227.04 150.33C237.45 152.81 253.19 156.55 268.04 165.89C283.31 175.52 310.89 200.79 317.4 234.41C317.477 234.8 317.395 235.204 317.174 235.534C316.953 235.864 316.61 236.093 316.22 236.17H315.89Z" fill="black"/>
</g>
</g>
<defs>
<clipPath id="clip0_412_181">
<rect width="642" height="847" fill="white"/>
</clipPath>
</defs>
</svg>
